<svg xmlns="http://www.w3.org/2000/svg" width="1200" height="760" viewBox="0 0 1200 760" role="img" aria-labelledby="title desc">
  <title id="title">Bob connects to Alice with a bearer token</title>
  <desc id="desc">Screenshot-style mock of manual connect and connected brain state.</desc>
  <rect width="1200" height="760" fill="#0f172a"/>
  <rect x="44" y="36" width="1112" height="688" rx="18" fill="#111827" stroke="#334155"/>
  <text x="80" y="88" fill="#f1f5f9" font-family="Inter, Segoe UI, sans-serif" font-size="30" font-weight="700">Bob connects to Alice</text>
  <text x="80" y="122" fill="#94a3b8" font-family="Inter, Segoe UI, sans-serif" font-size="16">Manual Connect</text>
  <rect x="80" y="156" width="1040" height="520" rx="12" fill="#1e293b" stroke="#475569"/>
  <rect x="112" y="198" width="976" height="210" rx="12" fill="#0f172a" stroke="#334155"/>
  <text x="138" y="240" fill="#f1f5f9" font-family="Inter, Segoe UI, sans-serif" font-size="20" font-weight="700">Manual Connect</text>
  <text x="138" y="284" fill="#94a3b8" font-family="Inter, Segoe UI, sans-serif" font-size="14">Host</text>
  <rect x="138" y="298" width="300" height="42" rx="7" fill="#111827" stroke="#475569"/>
  <text x="158" y="325" fill="#f1f5f9" font-family="JetBrains Mono, Consolas, monospace" font-size="15">192.168.1.42</text>
  <text x="470" y="284" fill="#94a3b8" font-family="Inter, Segoe UI, sans-serif" font-size="14">Port</text>
  <rect x="470" y="298" width="124" height="42" rx="7" fill="#111827" stroke="#475569"/>
  <text x="494" y="325" fill="#f1f5f9" font-family="JetBrains Mono, Consolas, monospace" font-size="15">7421</text>
  <text x="626" y="284" fill="#94a3b8" font-family="Inter, Segoe UI, sans-serif" font-size="14">Token</text>
  <rect x="626" y="298" width="300" height="42" rx="7" fill="#111827" stroke="#475569"/>
  <text x="646" y="325" fill="#a78bfa" font-family="JetBrains Mono, Consolas, monospace" font-size="15">ts-92ab...4f10</text>
  <rect x="946" y="298" width="94" height="42" rx="7" fill="#7c6fff"/>
  <text x="969" y="325" fill="#fff" font-family="Inter, Segoe UI, sans-serif" font-size="15" font-weight="700">Connect</text>
  <rect x="112" y="444" width="976" height="150" rx="12" fill="#0f172a" stroke="#334155"/>
  <text x="138" y="486" fill="#f1f5f9" font-family="Inter, Segoe UI, sans-serif" font-size="20" font-weight="700">Connected Brains (1)</text>
  <rect x="138" y="514" width="922" height="56" rx="10" fill="#111827" stroke="#475569"/>
  <text x="166" y="548" fill="#f1f5f9" font-family="Inter, Segoe UI, sans-serif" font-size="16" font-weight="700">Alice - Vietnamese law notes</text>
  <rect x="390" y="528" width="104" height="28" rx="14" fill="#172e3a" stroke="#60a5fa"/>
  <text x="412" y="548" fill="#60a5fa" font-family="Inter, Segoe UI, sans-serif" font-size="13" font-weight="700">Connected</text>
  <text x="520" y="548" fill="#94a3b8" font-family="JetBrains Mono, Consolas, monospace" font-size="13">192.168.1.42:7421</text>
  <rect x="920" y="525" width="72" height="34" rx="6" fill="#1e293b" stroke="#7c6fff"/>
  <text x="938" y="547" fill="#a78bfa" font-family="Inter, Segoe UI, sans-serif" font-size="14" font-weight="700">Search</text>
  <text x="80" y="708" fill="#64748b" font-family="Inter, Segoe UI, sans-serif" font-size="13">The token is required for MCP health and search calls.</text>
</svg>